<?xml version="1.0" encoding="UTF-8"?>
<svg id="Layer_1" data-name="Layer 1" xmlns="http://www.w3.org/2000/svg" xmlns:xlink="http://www.w3.org/1999/xlink" viewBox="0 0 300 300">
  <defs>
    <style>
      .cls-1, .cls-2 {
        fill: #fff;
      }

      .cls-3 {
        fill: #404041;
      }

      .cls-4 {
        fill: #808184;
      }

      .cls-5 {
        fill: #46086b;
      }

      .cls-6 {
        fill: #929497;
      }

      .cls-7 {
        fill: #a7a8ab;
      }

      .cls-8 {
        fill: #a6a8ab;
      }

      .cls-9 {
        fill: #59595c;
      }

      .cls-10 {
        opacity: .15;
      }

      .cls-10, .cls-11, .cls-12, .cls-13 {
        fill: none;
      }

      .cls-14 {
        fill: #d0d2d3;
      }

      .cls-15 {
        fill: #bbbdbf;
      }

      .cls-11, .cls-2 {
        isolation: isolate;
      }

      .cls-2 {
        font-family: Aller-Bold, Aller;
        font-size: 112.21px;
        font-weight: 700;
      }

      .cls-16 {
        fill: #636466;
      }

      .cls-13 {
        clip-path: url(#clippath);
      }

      .cls-17 {
        fill: #221f1f;
      }

      .cls-18 {
        fill: #e6e7e8;
      }

      .cls-19 {
        fill: #f1f1f2;
      }

      .cls-20 {
        fill: #6d6e70;
      }

      .cls-21 {
        fill: #231f20;
      }

      .cls-22 {
        fill: #58595b;
      }
    </style>
    <clipPath id="clippath">
      <circle class="cls-12" cx="150" cy="150" r="150"/>
    </clipPath>
  </defs>
  <g id="Layer_1-2" data-name="Layer 1">
    <circle class="cls-5" cx="150" cy="150" r="143.7"/>
    <g id="Triangles" class="cls-10">
      <g class="cls-13">
        <g>
          <path class="cls-19" d="m-106.2,311.9L150-131.9l256.2,443.8H-106.2Z"/>
          <path class="cls-21" d="m43.8,418.7L300-25l256.2,443.7H43.8Z"/>
          <path class="cls-4" d="m-434.8,338.4L-178.6-105.3,77.6,338.4H-434.8Z"/>
          <path class="cls-6" d="m36.4,133.2l256.2-443.8,256.2,443.8H36.4Z"/>
          <path class="cls-16" d="m-247.4,355L8.8-88.7l256.2,443.7H-247.4Z"/>
          <path class="cls-9" d="m-125.1,621.9L131.1,178.1l256.2,443.8H-125.1Z"/>
          <path class="cls-7" d="m-189.9,122.2L-92.6-46.3,4.7,122.2h-194.6,0Zm81.5,376.6L-11.1,330.3l97.3,168.5s-194.6,0-194.6,0Z"/>
          <path class="cls-20" d="m109.3,195.8L206.6,27.3l97.3,168.5H109.3Z"/>
          <path class="cls-7" d="m273.7,460.7l97.3-168.5,97.2,168.5h-194.5Z"/>
          <path class="cls-17" d="m253.7,280.9l48.6-84.2,48.6,84.2h-97.2ZM21.2,375l97.3-168.5,97.3,168.5H21.2Z"/>
          <path class="cls-4" d="m83.8-111.6L11.5,13.6h194.6l-72.3-125.2h-50Zm213.2,0l-23.6,40.9h97.3l-23.7-40.9h-50Z"/>
          <path class="cls-3" d="m10.3,307.5l97.3-168.5,97.3,168.5H10.3Z"/>
          <path class="cls-4" d="m211.1,344.2l97.2-168.5,97.3,168.5h-194.5,0Z"/>
          <path class="cls-22" d="m98.2,79.8L146.3-3.5l48.1,83.3h-96.2Z"/>
          <path class="cls-17" d="m258,65.2l48.1-83.3,48.1,83.3h-96.2Z"/>
          <path class="cls-3" d="m172.1,234.7l48.1-83.3,48.1,83.3h-96.2Z"/>
          <path class="cls-19" d="m258,214.3l48.1-83.3,48.1,83.3h-96.2Z"/>
          <path class="cls-7" d="m-74.5,53.8L-26.4-29.5,21.7,53.8h-96.2Zm-48.4,146.6l48.1-83.3,48.1,83.3h-96.2Z"/>
          <path class="cls-15" d="m162.2,91.2l24.1-41.6,24,41.6h-48.1Z"/>
          <path class="cls-1" d="m206.9,38.8l6.4-11,6.4,11h-12.8,0Z"/>
          <path class="cls-20" d="m3.9,92.8L52,9.5l48.1,83.3H3.9Z"/>
          <path class="cls-8" d="m85.8,306.9l48.1-83.3,48.1,83.3h-96.2Z"/>
          <path class="cls-21" d="m82,238.1l18.1-31.4,18,31.4h-36.1Z"/>
          <path class="cls-7" d="m189,260.3l24-41.7,24.1,41.7h-48.1Zm-5.4-118.1l24-41.6,24.1,41.6h-48.1Z"/>
          <path class="cls-19" d="m201,77.8L249.1-5.5l48,83.3h-96.1Z"/>
          <path class="cls-8" d="m-23.8,118.6L24.3,35.3l48.1,83.3s-96.2,0-96.2,0Z"/>
          <path class="cls-9" d="m-11,247.2l18.3-31.8,18.3,31.8H-11Z"/>
          <path class="cls-8" d="m240.4,205.6l18.3-31.8,18.3,31.8h-36.6,0Z"/>
          <path class="cls-1" d="m131.7,59.8l18.3-31.7,18.3,31.7h-36.6Z"/>
          <path class="cls-22" d="m131.7,257.1l18.3-31.8,18.3,31.8h-36.6Z"/>
          <path class="cls-9" d="m-44.7,63l18.3-31.8,18.4,31.8s-36.7,0-36.7,0ZM213.4,335.2l18.3-31.7,18.3,31.7h-36.6Z"/>
          <path class="cls-4" d="m282.5,110.6l18.3-31.8,18.3,31.8h-36.6,0Z"/>
          <path class="cls-15" d="m20.3,208.1l18.3-31.8,18.4,31.8H20.3Z"/>
          <path class="cls-19" d="m47.3,270.1l18.3-31.8,18.4,31.8h-36.7ZM2.6,142.7l18.4-31.7,18.3,31.7H2.6Z"/>
          <path class="cls-9" d="m88.7,98.7l9.1-15.8,9.2,15.8h-18.3Z"/>
          <path class="cls-15" d="m25.8,127.9l9.1-15.8,9.2,15.8h-18.3Z"/>
          <path class="cls-18" d="m82.7,59.4l9.2-15.9,9.2,15.9s-18.4,0-18.4,0Z"/>
          <path class="cls-9" d="m87.2,394.2l18.3-31.8,18.3,31.8h-36.6Zm404.5-131.1l18.4-31.8,18.3,31.8h-36.7Z"/>
          <path class="cls-4" d="m162.7,36.9l18.3-31.8,18.4,31.8h-36.7Z"/>
          <path class="cls-1" d="m258.4,103.2l18.3-31.7,18.3,31.7h-36.6,0Z"/>
          <path class="cls-4" d="m-122.4,314.9l18.3-31.7,18.4,31.7s-36.7,0-36.7,0Zm375.1-24.4l18.4-31.8,18.3,31.8h-36.7,0Z"/>
          <path class="cls-7" d="m261.9,243.6l9.2-15.9,9.1,15.9h-18.3Z"/>
          <path class="cls-14" d="m185.1,103.5l10.9-18.9,10.9,18.9h-21.8,0Z"/>
        </g>
      </g>
    </g>
    <path class="cls-1" d="m150,0C67.2,0,0,67.2,0,150s67.2,150,150,150,150-67.2,150-150S232.8,0,150,0Zm0,285c-74.6,0-135-60.4-135-135S75.4,15,150,15s135,60.4,135,135-60.4,135-135,135Z"/>
  </g>
  <g id="sop_" data-name="sop ">
    <g class="cls-11">
      <text class="cls-2" transform="translate(41.72 180.14)"><tspan x="0" y="0">sop!</tspan></text>
    </g>
  </g>
</svg>