<?xml version="1.0" encoding="UTF-8"?>
<svg id="Layer_1" data-name="Layer 1" xmlns="http://www.w3.org/2000/svg" viewBox="0 0 300 300">
  <defs>
    <style>
      .cls-1 {
        isolation: isolate;
      }

      .cls-2 {
        fill: #fff;
        stroke-width: 0px;
      }
    </style>
  </defs>
  <g id="Layer_1-2" data-name="Layer 1-2">
    <path class="cls-2" d="M150,0C67.2,0,0,67.2,0,150s67.2,150,150,150,150-67.2,150-150S232.8,0,150,0ZM150,285c-74.6,0-135-60.4-135-135S75.4,15,150,15s135,60.4,135,135-60.4,135-135,135Z"/>
  </g>
  <g id="sop_" data-name="sop ">
    <g class="cls-1">
      <g class="cls-1">
        <path class="cls-2" d="M60.8,154.89c-4.19-1.2-7.46-2.97-9.82-5.33-2.36-2.36-3.54-5.89-3.54-10.6,0-5.68,2.04-10.14,6.12-13.35,4.08-3.22,9.63-4.83,16.66-4.83,2.92,0,5.8.26,8.64.79,2.84.52,5.72,1.31,8.64,2.36-.15,1.95-.52,3.97-1.12,6.06-.6,2.1-1.31,3.93-2.13,5.5-1.79-.75-3.78-1.4-5.95-1.96-2.17-.56-4.45-.84-6.84-.84-2.54,0-4.53.39-5.95,1.18-1.42.79-2.13,2.04-2.13,3.76s.5,2.8,1.51,3.48c1.01.67,2.45,1.31,4.32,1.91l6.4,1.91c2.09.6,3.98,1.33,5.67,2.19,1.68.86,3.12,1.93,4.32,3.2,1.2,1.27,2.13,2.84,2.81,4.71.67,1.87,1.01,4.15,1.01,6.84s-.58,5.35-1.74,7.74c-1.16,2.4-2.84,4.47-5.05,6.23-2.21,1.76-4.88,3.14-8.02,4.15s-6.7,1.51-10.66,1.51c-1.79,0-3.44-.06-4.94-.17-1.5-.11-2.94-.3-4.32-.56-1.39-.26-2.75-.58-4.1-.95-1.35-.37-2.81-.86-4.38-1.46.15-2.02.5-4.06,1.07-6.12.56-2.06,1.29-4.06,2.19-6,2.47.97,4.81,1.7,7.01,2.19,2.21.49,4.51.73,6.9.73,1.05,0,2.19-.09,3.42-.28,1.23-.19,2.37-.52,3.42-1.01,1.05-.49,1.92-1.12,2.64-1.91.71-.79,1.07-1.81,1.07-3.09,0-1.8-.54-3.09-1.63-3.87-1.08-.79-2.6-1.48-4.54-2.08l-6.96-2.02Z"/>
        <path class="cls-2" d="M125.76,181.49c-4.71,0-8.81-.77-12.29-2.3s-6.36-3.66-8.64-6.4c-2.28-2.73-4-5.93-5.16-9.59-1.16-3.67-1.74-7.63-1.74-11.89s.58-8.26,1.74-12.01c1.16-3.74,2.88-6.97,5.16-9.71,2.28-2.73,5.16-4.88,8.64-6.45,3.48-1.57,7.57-2.36,12.29-2.36s8.83.79,12.34,2.36c3.52,1.57,6.43,3.72,8.75,6.45,2.32,2.73,4.04,5.97,5.16,9.71,1.12,3.74,1.68,7.74,1.68,12.01s-.56,8.23-1.68,11.89c-1.12,3.67-2.84,6.86-5.16,9.59-2.32,2.73-5.24,4.86-8.75,6.4-3.52,1.53-7.63,2.3-12.34,2.3ZM125.76,169.37c4.19,0,7.2-1.55,9.03-4.66,1.83-3.1,2.75-7.57,2.75-13.41s-.92-10.3-2.75-13.41c-1.83-3.1-4.84-4.66-9.03-4.66s-7.09,1.55-8.92,4.66c-1.83,3.11-2.75,7.57-2.75,13.41s.92,10.31,2.75,13.41c1.83,3.1,4.81,4.66,8.92,4.66Z"/>
        <path class="cls-2" d="M165.93,122.02c1.05-.22,2.08-.37,3.09-.45,1.01-.07,2.15-.11,3.42-.11,2.09,0,4.22.22,6.4.67.22.38.43.92.62,1.63.19.71.37,1.48.56,2.3.19.82.34,1.63.45,2.41s.21,1.44.28,1.96c.67-1.2,1.5-2.37,2.47-3.53.97-1.16,2.15-2.19,3.54-3.09,1.38-.9,2.93-1.63,4.66-2.19,1.72-.56,3.63-.84,5.72-.84,3.22,0,6.23.6,9.03,1.8,2.81,1.2,5.25,3.01,7.35,5.44,2.09,2.43,3.72,5.48,4.88,9.14,1.16,3.67,1.74,8.01,1.74,13.02s-.71,9.22-2.13,13.07c-1.42,3.85-3.48,7.12-6.17,9.82-2.69,2.69-5.99,4.77-9.88,6.23-3.89,1.46-8.3,2.19-13.24,2.19-1.27,0-2.53-.06-3.76-.17-1.23-.11-2.26-.24-3.09-.39v25.81c-1.42.22-2.79.37-4.09.45-1.31.07-2.6.11-3.87.11s-2.56-.04-3.87-.11c-1.31-.08-2.68-.22-4.1-.45v-84.72ZM181.87,167.8c2.02.6,4.34.9,6.96.9,4.64,0,8.19-1.5,10.66-4.49,2.47-2.99,3.7-7.52,3.7-13.58,0-2.32-.19-4.47-.56-6.45-.38-1.98-1.01-3.68-1.91-5.11-.9-1.42-2.04-2.54-3.42-3.37-1.39-.82-3.09-1.23-5.11-1.23-1.87,0-3.46.36-4.77,1.07-1.31.71-2.38,1.68-3.2,2.92-.82,1.23-1.42,2.67-1.79,4.32-.38,1.65-.56,3.41-.56,5.27v19.75Z"/>
        <path class="cls-2" d="M233.26,180.14c-.45-2.77-.67-5.5-.67-8.19s.22-5.46.67-8.3c2.77-.45,5.5-.67,8.19-.67s5.46.22,8.3.67c.45,2.84.67,5.57.67,8.19,0,2.77-.22,5.54-.67,8.3-2.84.45-5.57.67-8.19.67-2.77,0-5.54-.22-8.3-.67ZM232.81,99.46c2.92-.45,5.8-.67,8.64-.67s5.83.22,8.75.67l-1.12,54.87c-2.62.45-5.12.67-7.52.67-2.54,0-5.09-.22-7.63-.67l-1.12-54.87Z"/>
      </g>
    </g>
  </g>
</svg>