<svg xmlns="http://www.w3.org/2000/svg" xmlns:xlink="http://www.w3.org/1999/xlink" viewBox="0,0,256,256" width="48px" height="48px"><g transform="translate(-42.24,-42.24) scale(1.33,1.33)"><g fill="#ffffff" fill-rule="nonzero" stroke="none" stroke-width="1" stroke-linecap="butt" stroke-linejoin="miter" stroke-miterlimit="10" stroke-dasharray="" stroke-dashoffset="0" font-family="none" font-weight="none" font-size="none" text-anchor="none" style="mix-blend-mode: normal"><g transform="scale(4,4)"><path d="M53.527,17.427c2.187,2.25 2.473,5.825 2.473,14.573c0,8.748 -0.286,12.323 -2.473,14.573c-2.187,2.249 -4.465,2.427 -21.527,2.427c-17.062,0 -19.34,-0.178 -21.527,-2.427c-2.187,-2.25 -2.473,-5.825 -2.473,-14.573c0,-8.748 0.286,-12.323 2.473,-14.573c2.187,-2.25 4.465,-2.427 21.527,-2.427c17.062,0 19.34,0.178 21.527,2.427zM27.95,39.417l12.146,-7.038l-12.146,-6.928z"></path></g></g></g></svg>